# xmcd
#
# Track frame offsets: 
#        150
#        13757
#        29538
#        43605
#        60252
#        78733
#        94266
#        111381
#        131414
#        148916
#        163576
#        180692
#        198046
#
# Disc length: 2872 seconds
#
# Revision: 0
# Processed by: cddbd v1.5.2PL0 Copyright (c) Steve Scherf et al.
# Submitted via: ExactAudioCopyFreeDBPlugin 1.0
#
DISCID=b10b360d
DTITLE=Lochwood - The Village Bear
DYEAR=2018
DGENRE=Bluegrass
TTITLE0=The Old Swinging Bridge
TTITLE1=Through the Bottom of the Glass
TTITLE2=Your Worries and Troubles Are Mine
TTITLE3=The Village Bear
TTITLE4=Walk Softly on the Bridges
TTITLE5=We Live in Two Different Worlds
TTITLE6=Moonshiner
TTITLE7=First Day in Town
TTITLE8=Broken Hearted Lover
TTITLE9=Take My Ring from Your Finger
TTITLE10=Long I Ride
TTITLE11=Cold Snowy Morning
TTITLE12=Easy to See
EXTD=
EXTT0=
EXTT1=
EXTT2=
EXTT3=
EXTT4=
EXTT5=
EXTT6=
EXTT7=
EXTT8=
EXTT9=
EXTT10=
EXTT11=
EXTT12=
PLAYORDER=
